<?xml version="1.0" standalone="no"?>
<!DOCTYPE svg PUBLIC "-//W3C//DTD SVG 1.1//EN" "http://www.w3.org/Graphics/SVG/1.1/DTD/svg11.dtd" >
<svg xmlns="http://www.w3.org/2000/svg">
<metadata>Generated by IcoMoon</metadata>
<defs>
<font id="icons" horiz-adv-x="1024">
<font-face units-per-em="1024" ascent="960" descent="-64" />
<missing-glyph horiz-adv-x="1024" />
<glyph unicode="&#x20;" horiz-adv-x="512" d="" />
<glyph unicode="&#xe600;" glyph-name="uniE600" horiz-adv-x="1232" d="M270.076 690.516h690.97c25.12 0 45.412 20.338 45.412 45.41s-20.292 45.41-45.412 45.41h-690.97c-25.098 0-45.412-20.338-45.412-45.41s20.338-45.41 45.412-45.41zM961.044 479.488h-690.97c-25.098 0-45.412-20.338-45.412-45.412 0-25.096 20.314-45.412 45.412-45.412h690.97c25.12 0 45.41 20.314 45.41 45.412 0 25.072-20.314 45.412-45.412 45.412zM961.044 177.476h-690.97c-25.098 0-45.412-20.292-45.412-45.41s20.314-45.412 45.412-45.412h690.97c25.12 0 45.41 20.292 45.41 45.412s-20.314 45.412-45.412 45.412z" />
<glyph unicode="&#xe903;" glyph-name="ebook-normal" horiz-adv-x="829" d="M633.905 960h48.762v-828.952h-48.762v828.952zM487.619 960h48.762v-828.952h-48.762v828.952zM84.046-61.426c-16.211-8.105-35.284 3.683-35.284 21.807v146.286c0 13.465 10.916 24.381 24.381 24.381h195.048c13.465 0 24.381-10.916 24.381-24.381v-146.286c0-18.124-19.074-29.912-35.284-21.807l-86.62 43.31-86.62-43.31zM97.524-0.17l62.239 31.12c6.864 3.432 14.943 3.432 21.807 0l62.239-31.12v82.456h-146.286v-82.456zM73.143 911.238c-13.465 0-24.381-10.916-24.381-24.381v-731.429c0-13.465 10.916-24.381 24.381-24.381h585.143c67.326 0 121.905 54.579 121.905 121.905v536.381c0 67.326-54.579 121.905-121.905 121.905h-585.143zM73.143 960h585.143c94.257 0 170.667-76.41 170.667-170.667v-536.381c0-94.257-76.41-170.667-170.667-170.667h-585.143c-40.396 0-73.143 32.747-73.143 73.143v731.429c0 40.396 32.747 73.143 73.143 73.143z" />
<glyph unicode="&#xe906;" glyph-name="help-hover" d="M498.503 175.715c8.19 5.46 18.859 5.46 27.048 0l247.2-164.8-41.050 287.351c-1.085 7.597 1.47 15.262 6.896 20.688l209.33 209.33-293.062 41.866c-8.423 1.203-15.61 6.711-18.962 14.532l-123.876 289.044-123.876-289.044c-3.352-7.821-10.538-13.328-18.962-14.532l-293.062-41.866 209.33-209.33c5.426-5.426 7.981-13.091 6.896-20.688l-41.050-287.351 247.2 164.8zM512.027 126.126l-279.047-186.032c-17.535-11.69-40.64 2.871-37.66 23.734l47.038 329.265-235.19 235.19c-14.206 14.206-6.097 38.535 13.792 41.376l327.769 46.824 140.888 328.739c8.444 19.702 36.375 19.702 44.819 0l140.888-328.739 327.769-46.824c19.889-2.841 27.998-27.169 13.792-41.376l-235.19-235.19 47.038-329.265c2.98-20.863-20.125-35.424-37.66-23.734l-279.047 186.032z" />
<glyph unicode="&#xe90a;" glyph-name="home-hover" d="M634.339-15.238v170.667c0 40.396-32.747 73.143-73.143 73.143h-97.524c-40.396 0-73.143-32.747-73.143-73.143v-170.667h243.81zM463.673 277.333h97.524c67.326 0 121.905-54.579 121.905-121.905v-195.048c0-13.465-10.916-24.381-24.381-24.381h-292.571c-13.465 0-24.381 10.916-24.381 24.381v195.048c0 67.326 54.579 121.905 121.905 121.905zM879.926 572.076l-367.491 330.742-366.921-330.229c0.783-2.391 1.207-4.945 1.207-7.598v-507.086c0-40.396 32.747-73.143 73.143-73.143h585.143c40.396 0 73.143 32.747 73.143 73.143v507.086c0 2.423 0.592 4.785 1.777 7.085zM926.911 529.789v-471.884c0-67.326-54.579-121.905-121.905-121.905h-585.143c-67.326 0-121.905 54.579-121.905 121.905v471.884l-56.833-51.15c-10.009-9.008-25.424-8.196-34.432 1.812s-8.196 25.424 1.812 34.432l487.619 438.857c9.272 8.345 23.348 8.345 32.62 0l487.619-438.857c10.009-9.008 10.82-24.424 1.812-34.432s-24.424-10.82-34.432-1.812l-56.833 51.15z" />
<glyph unicode="&#xe90c;" glyph-name="logout-normal" horiz-adv-x="878" d="M585.143 691.81v97.524c0 66.42-64.732 121.905-146.286 121.905h-243.81c-81.554 0-146.286-55.484-146.286-121.905v-682.667c0-66.42 64.732-121.905 146.286-121.905h243.81c81.554 0 146.286 55.484 146.286 121.905v97.524c0 32.508 48.762 32.508 48.762 0v-97.524c0-95.162-88.088-170.667-195.048-170.667h-243.81c-106.959 0-195.048 75.504-195.048 170.667v682.667c0 95.162 88.088 170.667 195.048 170.667h243.81c106.959 0 195.048-75.504 195.048-170.667v-97.524c0-13.465-10.916-24.381-24.381-24.381s-24.381 10.916-24.381 24.381zM316.952 472.381c-13.465 0-24.381-10.916-24.381-24.381s10.916-24.381 24.381-24.381h477.52l-153.427-153.427c-9.521-9.521-9.521-24.959 0-34.48s24.959-9.521 34.48 0l195.048 195.048c9.521 9.521 9.521 24.959 0 34.48l-195.048 195.048c-9.521 9.521-24.959 9.521-34.48 0s-9.521-24.959 0-34.48l153.427-153.427h-477.52z" />
<glyph unicode="&#xe90d;" glyph-name="mycourse-normal" horiz-adv-x="829" d="M390.095 569.905h243.81v146.286h-243.81v-146.286zM365.714 764.952h292.571c13.465 0 24.381-10.916 24.381-24.381v-195.048c0-13.465-10.916-24.381-24.381-24.381h-292.571c-13.465 0-24.381 10.916-24.381 24.381v195.048c0 13.465 10.916 24.381 24.381 24.381zM195.048 911.238h-121.905c-13.465 0-24.381-10.916-24.381-24.381v-780.19c0-67.326 54.579-121.905 121.905-121.905h24.381v926.476zM243.81 911.238v-926.476h414.476c67.326 0 121.905 54.579 121.905 121.905v780.19c0 13.465-10.916 24.381-24.381 24.381h-512zM73.143 960h682.667c40.396 0 73.143-32.747 73.143-73.143v-780.19c0-94.257-76.41-170.667-170.667-170.667h-487.619c-94.257 0-170.667 76.41-170.667 170.667v780.19c0 40.396 32.747 73.143 73.143 73.143z" />
<glyph unicode="&#xe90e;" glyph-name="visible" d="M2.098 438.107c-2.797 6.299-2.797 13.488 0 19.787 95.923 216.051 291.586 355.821 509.902 355.821s413.98-139.77 509.902-355.821c2.797-6.299 2.797-13.488 0-19.787-95.923-216.051-291.586-355.821-509.902-355.821s-413.98 139.77-509.902 355.821zM51.158 448c89.883-193.468 265.996-316.952 460.842-316.952s370.958 123.485 460.842 316.952c-89.883 193.468-265.996 316.952-460.842 316.952s-370.958-123.485-460.842-316.952zM512 277.333c-94.257 0-170.667 76.41-170.667 170.667s76.41 170.667 170.667 170.667c94.257 0 170.667-76.41 170.667-170.667s-76.41-170.667-170.667-170.667zM512 326.095c67.326 0 121.905 54.579 121.905 121.905s-54.579 121.905-121.905 121.905c-67.326 0-121.905-54.579-121.905-121.905s54.579-121.905 121.905-121.905z" />
<glyph unicode="&#xe90f;" glyph-name="dots-horizontal-triple1" d="M512 345.6c-56.554 0-102.4 45.846-102.4 102.4s45.846 102.4 102.4 102.4v0c56.554 0 102.4-45.846 102.4-102.4s-45.846-102.4-102.4-102.4v0zM512 652.8c-56.554 0-102.4 45.846-102.4 102.4s45.846 102.4 102.4 102.4v0c56.554 0 102.4-45.846 102.4-102.4s-45.846-102.4-102.4-102.4v0zM512 38.4c-56.554 0-102.4 45.846-102.4 102.4s45.846 102.4 102.4 102.4v0c56.554 0 102.4-45.846 102.4-102.4s-45.846-102.4-102.4-102.4v0z" />
<glyph unicode="&#xe910;" glyph-name="checkmark1" d="M0 396.8l102.4 102.4 256-256 563.2 563.2 102.4-102.4-665.6-665.6z" />
<glyph unicode="&#xe911;" glyph-name="cheveron-down1" d="M475.802 296.96l36.198-36.198 289.638 289.638-72.397 72.397-217.242-217.19-217.242 217.19-72.397-72.397z" />
<glyph unicode="&#xe912;" glyph-name="close1" d="M512 520.397l-362.035 362.035-72.397-72.397 362.035-362.035-362.035-362.035 72.397-72.397 362.035 362.035 362.035-362.035 72.397 72.397-362.035 362.035 362.035 362.035-72.397 72.397-362.035-362.035z" />
<glyph unicode="&#xe913;" glyph-name="envelope1" d="M921.6 857.6c56.554 0 102.4-45.846 102.4-102.4v0-614.4c0-56.554-45.846-102.4-102.4-102.4v0h-819.2c-56.554 0-102.4 45.846-102.4 102.4v0 614.4c0 56.32 46.080 102.4 102.4 102.4h819.2zM697.856 391.68l326.144-250.88v102.4l-262.144 199.68 262.144 209.92v102.4l-512-409.6-512 409.6v-102.4l262.144-209.92-262.144-199.68v-102.4l326.144 250.88 185.856-148.48 185.856 148.48z" />
<glyph unicode="&#xe914;" glyph-name="mood-happy-outline1" d="M512-64c-282.77 0-512 229.23-512 512s229.23 512 512 512v0c282.77 0 512-229.23 512-512s-229.23-512-512-512v0zM512 38.4c226.216 0 409.6 183.384 409.6 409.6s-183.384 409.6-409.6 409.6v0c-226.216 0-409.6-183.384-409.6-409.6s183.384-409.6 409.6-409.6v0zM332.8 499.2c-42.415 0-76.8 34.385-76.8 76.8s34.385 76.8 76.8 76.8v0c42.415 0 76.8-34.385 76.8-76.8s-34.385-76.8-76.8-76.8v0zM691.2 499.2c-42.415 0-76.8 34.385-76.8 76.8s34.385 76.8 76.8 76.8v0c42.415 0 76.8-34.385 76.8-76.8s-34.385-76.8-76.8-76.8v0zM801.792 345.6c-43.318-120.576-156.666-205.257-289.792-205.257s-246.474 84.68-289.119 203.115l-0.673 2.142h579.584z" />
<glyph unicode="&#xe915;" glyph-name="mood-neutral-outline1" d="M512-64c-282.77 0-512 229.23-512 512s229.23 512 512 512v0c282.77 0 512-229.23 512-512s-229.23-512-512-512v0zM512 38.4c226.216 0 409.6 183.384 409.6 409.6s-183.384 409.6-409.6 409.6v0c-226.216 0-409.6-183.384-409.6-409.6s183.384-409.6 409.6-409.6v0zM332.8 499.2c-42.415 0-76.8 34.385-76.8 76.8s34.385 76.8 76.8 76.8v0c42.415 0 76.8-34.385 76.8-76.8s-34.385-76.8-76.8-76.8v0zM691.2 499.2c-42.415 0-76.8 34.385-76.8 76.8s34.385 76.8 76.8 76.8v0c42.415 0 76.8-34.385 76.8-76.8s-34.385-76.8-76.8-76.8v0zM358.4 294.4h307.2c28.277 0 51.2-22.923 51.2-51.2s-22.923-51.2-51.2-51.2v0h-307.2c-28.277 0-51.2 22.923-51.2 51.2s22.923 51.2 51.2 51.2v0z" />
<glyph unicode="&#xe916;" glyph-name="mood-sad-outline1" d="M512-64c-282.77 0-512 229.23-512 512s229.23 512 512 512v0c282.77 0 512-229.23 512-512s-229.23-512-512-512v0zM512 38.4c226.216 0 409.6 183.384 409.6 409.6s-183.384 409.6-409.6 409.6v0c-226.216 0-409.6-183.384-409.6-409.6s183.384-409.6 409.6-409.6v0zM332.8 499.2c-42.415 0-76.8 34.385-76.8 76.8s34.385 76.8 76.8 76.8v0c42.415 0 76.8-34.385 76.8-76.8s-34.385-76.8-76.8-76.8v0zM691.2 499.2c-42.415 0-76.8 34.385-76.8 76.8s34.385 76.8 76.8 76.8v0c42.415 0 76.8-34.385 76.8-76.8s-34.385-76.8-76.8-76.8v0zM801.792 192h-579.584c43.318 120.576 156.666 205.257 289.792 205.257s246.474-84.68 289.119-203.115l0.673-2.142z" />
<glyph unicode="&#xe917;" glyph-name="search1" d="M660.48 226.816c-68.622-53.712-156.164-86.131-251.277-86.131-226.216 0-409.6 183.384-409.6 409.6s183.384 409.6 409.6 409.6c226.216 0 409.6-183.384 409.6-409.6 0-95.113-32.419-182.654-86.809-252.177l0.678 0.9 273.92-272.896-72.704-72.704-272.896 273.408zM409.6 243.2c169.662 0 307.2 137.538 307.2 307.2s-137.538 307.2-307.2 307.2v0c-169.662 0-307.2-137.538-307.2-307.2s137.538-307.2 307.2-307.2v0z" />
<glyph unicode="&#xeab1;" glyph-name="github1" d="M512.008 934.558c-282.738 0-512.008-229.218-512.008-511.998 0-226.214 146.704-418.132 350.136-485.836 25.586-4.738 34.992 11.11 34.992 24.632 0 12.204-0.48 52.542-0.696 95.324-142.448-30.976-172.504 60.41-172.504 60.41-23.282 59.176-56.848 74.916-56.848 74.916-46.452 31.778 3.51 31.124 3.51 31.124 51.4-3.61 78.476-52.766 78.476-52.766 45.672-78.27 119.776-55.64 149.004-42.558 4.588 33.086 17.852 55.68 32.506 68.464-113.73 12.942-233.276 56.85-233.276 253.032 0 55.898 20.004 101.574 52.76 137.428-5.316 12.9-22.854 64.972 4.952 135.5 0 0 43.006 13.752 140.84-52.49 40.836 11.348 84.636 17.036 128.154 17.234 43.502-0.198 87.336-5.886 128.256-17.234 97.734 66.244 140.656 52.49 140.656 52.49 27.872-70.528 10.35-122.6 5.036-135.5 32.82-35.856 52.694-81.532 52.694-137.428 0-196.654-119.778-239.95-233.79-252.624 18.364-15.89 34.724-47.046 34.724-94.812 0-68.508-0.596-123.644-0.596-140.508 0-13.628 9.222-29.594 35.172-24.566 203.322 67.776 349.842 259.626 349.842 485.768 0 282.78-229.234 511.998-511.992 511.998z" />
<glyph unicode="&#xf09b;" glyph-name="twitter1" horiz-adv-x="951" d="M925.714 704.914q-38.286-56-92.571-95.429 0.571-8 0.571-24 0-74.286-21.714-148.286t-66-142-105.429-120.286-147.429-83.429-184.571-31.143q-154.857 0-283.429 82.857 20-2.286 44.571-2.286 128.571 0 229.143 78.857-60 1.143-107.429 36.857t-65.143 91.143q18.857-2.857 34.857-2.857 24.571 0 48.571 6.286-64 13.143-106 63.714t-42 117.429v2.286q38.857-21.714 83.429-23.429-37.714 25.143-60 65.714t-22.286 88q0 50.286 25.143 93.143 69.143-85.143 168.286-136.286t212.286-56.857q-4.571 21.714-4.571 42.286 0 76.571 54 130.571t130.571 54q80 0 134.857-58.286 62.286 12 117.143 44.571-21.143-65.714-81.143-101.714 53.143 5.714 106.286 28.571z" />
<glyph unicode="&#xf09c;" glyph-name="facebook1" horiz-adv-x="602" d="M548 931.2v-150.857h-89.714q-49.143 0-66.286-20.571t-17.143-61.714v-108h167.429l-22.286-169.143h-145.143v-433.714h-174.857v433.714h-145.714v169.143h145.714v124.571q0 106.286 59.429 164.857t158.286 58.571q84 0 130.286-6.857z" />
<glyph unicode="&#xf0e2;" glyph-name="linkedin1" horiz-adv-x="878" d="M199.429 580.914v-566.286h-188.571v566.286h188.571zM211.429 755.771q0.571-41.714-28.857-69.714t-77.429-28h-1.143q-46.857 0-75.429 28t-28.571 69.714q0 42.286 29.429 70t76.857 27.714 76-27.714 29.143-70zM877.714 339.2v-324.571h-188v302.857q0 60-23.143 94t-72.286 34q-36 0-60.286-19.714t-36.286-48.857q-6.286-17.143-6.286-46.286v-316h-188q1.143 228 1.143 369.714t-0.571 169.143l-0.571 27.429h188v-82.286h-1.143q11.429 18.286 23.429 32t32.286 29.714 49.714 24.857 65.429 8.857q97.714 0 157.143-64.857t59.429-190z" />
</font>
</defs>
</svg>
